<svg width="13" height="14" viewBox="0 0 13 14" fill="none" xmlns="http://www.w3.org/2000/svg">
<rect width="13" height="14" fill="#F5F5F5"/>
<g clip-path="url(#clip0_0_1)">
<rect width="420" height="2901" transform="translate(-265 -128)" fill="#121212"/>
<g clip-path="url(#clip1_0_1)">
<path d="M0.361111 0H0V0.35H0.361111V0Z" fill="#707070"/>
<path d="M0.720486 0H0.359375V0.35H0.720486V0Z" fill="#707070"/>
<path d="M1.08377 0H0.722656V0.35H1.08377V0Z" fill="#707070"/>
<path d="M1.44314 0H1.08203V0.35H1.44314V0Z" fill="#707070"/>
<path d="M1.80642 0H1.44531V0.35H1.80642V0Z" fill="#707070"/>
<path d="M2.1658 0H1.80469V0.35H2.1658V0Z" fill="#707070"/>
<path d="M2.52908 0H2.16797V0.35H2.52908V0Z" fill="#707070"/>
<path d="M2.88845 0H2.52734V0.35H2.88845V0Z" fill="#707070"/>
<path d="M3.25174 0H2.89062V0.35H3.25174V0Z" fill="#707070"/>
<path d="M3.61111 0H3.25V0.35H3.61111V0Z" fill="#707070"/>
<path d="M3.97049 0H3.60938V0.35H3.97049V0Z" fill="#707070"/>
<path d="M4.33377 0H3.97266V0.35H4.33377V0Z" fill="#707070"/>
<path d="M4.69314 0H4.33203V0.35H4.69314V0Z" fill="#707070"/>
<path d="M5.05642 0H4.69531V0.35H5.05642V0Z" fill="#707070"/>
<path d="M5.4158 0H5.05469V0.35H5.4158V0Z" fill="#707070"/>
<path d="M5.77908 0H5.41797V0.35H5.77908V0Z" fill="#707070"/>
<path d="M6.13845 0H5.77734V0.35H6.13845V0Z" fill="#707070"/>
<path d="M6.50174 0H6.14062V0.35H6.50174V0Z" fill="#707070"/>
<path d="M6.86111 0H6.5V0.35H6.86111V0Z" fill="#707070"/>
<path d="M7.22049 0H6.85938V0.35H7.22049V0Z" fill="#707070"/>
<path d="M7.58377 0H7.22266V0.35H7.58377V0Z" fill="#707070"/>
<path d="M7.94314 0H7.58203V0.35H7.94314V0Z" fill="#707070"/>
<path d="M8.30642 0H7.94531V0.35H8.30642V0Z" fill="#707070"/>
<path d="M8.6658 0H8.30469V0.35H8.6658V0Z" fill="#707070"/>
<path d="M0.361111 0.350098H0V0.700098H0.361111V0.350098Z" fill="#707070"/>
<path d="M0.720486 0.350098H0.359375V0.700098H0.720486V0.350098Z" fill="#707070"/>
<path d="M1.08377 0.350098H0.722656V0.700098H1.08377V0.350098Z" fill="#707070"/>
<path d="M1.44314 0.350098H1.08203V0.700098H1.44314V0.350098Z" fill="#707070"/>
<path d="M1.80642 0.350098H1.44531V0.700098H1.80642V0.350098Z" fill="#707070"/>
<path d="M2.1658 0.350098H1.80469V0.700098H2.1658V0.350098Z" fill="#707070"/>
<path d="M2.52908 0.350098H2.16797V0.700098H2.52908V0.350098Z" fill="#707070"/>
<path d="M2.88845 0.350098H2.52734V0.700098H2.88845V0.350098Z" fill="#707070"/>
<path d="M3.25174 0.350098H2.89062V0.700098H3.25174V0.350098Z" fill="#707070"/>
<path d="M3.61111 0.350098H3.25V0.700098H3.61111V0.350098Z" fill="#707070"/>
<path d="M3.97049 0.350098H3.60938V0.700098H3.97049V0.350098Z" fill="#707070"/>
<path d="M4.33377 0.350098H3.97266V0.700098H4.33377V0.350098Z" fill="#707070"/>
<path d="M4.69314 0.350098H4.33203V0.700098H4.69314V0.350098Z" fill="#707070"/>
<path d="M5.05642 0.350098H4.69531V0.700098H5.05642V0.350098Z" fill="#707070"/>
<path d="M5.4158 0.350098H5.05469V0.700098H5.4158V0.350098Z" fill="#707070"/>
<path d="M5.77908 0.350098H5.41797V0.700098H5.77908V0.350098Z" fill="#707070"/>
<path d="M6.13845 0.350098H5.77734V0.700098H6.13845V0.350098Z" fill="#707070"/>
<path d="M6.50174 0.350098H6.14062V0.700098H6.50174V0.350098Z" fill="#707070"/>
<path d="M6.86111 0.350098H6.5V0.700098H6.86111V0.350098Z" fill="#707070"/>
<path d="M7.22049 0.350098H6.85938V0.700098H7.22049V0.350098Z" fill="#707070"/>
<path d="M7.58377 0.350098H7.22266V0.700098H7.58377V0.350098Z" fill="#707070"/>
<path d="M7.94314 0.350098H7.58203V0.700098H7.94314V0.350098Z" fill="#707070"/>
<path d="M8.30642 0.350098H7.94531V0.700098H8.30642V0.350098Z" fill="#707070"/>
<path d="M8.6658 0.350098H8.30469V0.700098H8.6658V0.350098Z" fill="#707070"/>
<path d="M0.361111 0.699951H0V1.04995H0.361111V0.699951Z" fill="#707070"/>
<path d="M0.720486 0.699707H0.359375V1.04971H0.720486V0.699707Z" fill="#707070"/>
<path d="M1.08377 0.699707H0.722656V1.04971H1.08377V0.699707Z" fill="#707070"/>
<path d="M1.44314 0.699707H1.08203V1.04971H1.44314V0.699707Z" fill="#707070"/>
<path d="M1.80642 0.699707H1.44531V1.04971H1.80642V0.699707Z" fill="#707070"/>
<path d="M2.1658 0.699707H1.80469V1.04971H2.1658V0.699707Z" fill="#707070"/>
<path d="M2.52908 0.699707H2.16797V1.04971H2.52908V0.699707Z" fill="#707070"/>
<path d="M2.88845 0.699707H2.52734V1.04971H2.88845V0.699707Z" fill="#707070"/>
<path d="M3.25174 0.699707H2.89062V1.04971H3.25174V0.699707Z" fill="#707070"/>
<path d="M3.61111 0.699951H3.25V1.04995H3.61111V0.699951Z" fill="#707070"/>
<path d="M3.97049 0.699707H3.60938V1.04971H3.97049V0.699707Z" fill="#707070"/>
<path d="M4.33377 0.699707H3.97266V1.04971H4.33377V0.699707Z" fill="#707070"/>
<path d="M4.69314 0.699707H4.33203V1.04971H4.69314V0.699707Z" fill="#707070"/>
<path d="M5.05642 0.699707H4.69531V1.04971H5.05642V0.699707Z" fill="#707070"/>
<path d="M5.4158 0.699707H5.05469V1.04971H5.4158V0.699707Z" fill="#707070"/>
<path d="M5.77908 0.699707H5.41797V1.04971H5.77908V0.699707Z" fill="#707070"/>
<path d="M6.13845 0.699707H5.77734V1.04971H6.13845V0.699707Z" fill="#707070"/>
<path d="M6.50174 0.699707H6.14062V1.04971H6.50174V0.699707Z" fill="#707070"/>
<path d="M6.86111 0.699951H6.5V1.04995H6.86111V0.699951Z" fill="#707070"/>
<path d="M7.22049 0.699707H6.85938V1.04971H7.22049V0.699707Z" fill="#707070"/>
<path d="M7.58377 0.699707H7.22266V1.04971H7.58377V0.699707Z" fill="#707070"/>
<path d="M7.94314 0.699707H7.58203V1.04971H7.94314V0.699707Z" fill="#707070"/>
<path d="M8.30642 0.699707H7.94531V1.04971H8.30642V0.699707Z" fill="#707070"/>
<path d="M8.6658 0.699707H8.30469V1.04971H8.6658V0.699707Z" fill="#707070"/>
<path d="M0.361111 1.05005H0V1.40005H0.361111V1.05005Z" fill="#707070"/>
<path d="M0.720486 1.05029H0.359375V1.40029H0.720486V1.05029Z" fill="#707070"/>
<path d="M1.08377 1.05029H0.722656V1.40029H1.08377V1.05029Z" fill="#707070"/>
<path d="M1.44314 1.05029H1.08203V1.40029H1.44314V1.05029Z" fill="#707070"/>
<path d="M1.80642 1.05029H1.44531V1.40029H1.80642V1.05029Z" fill="#707070"/>
<path d="M2.1658 1.05029H1.80469V1.40029H2.1658V1.05029Z" fill="#707070"/>
<path d="M2.52908 1.05029H2.16797V1.40029H2.52908V1.05029Z" fill="#707070"/>
<path d="M2.88845 1.05029H2.52734V1.40029H2.88845V1.05029Z" fill="#707070"/>
<path d="M3.25174 1.05029H2.89062V1.40029H3.25174V1.05029Z" fill="#707070"/>
<path d="M3.61111 1.05005H3.25V1.40005H3.61111V1.05005Z" fill="#707070"/>
<path d="M3.97049 1.05029H3.60938V1.40029H3.97049V1.05029Z" fill="#707070"/>
<path d="M4.33377 1.05029H3.97266V1.40029H4.33377V1.05029Z" fill="#707070"/>
<path d="M4.69314 1.05029H4.33203V1.40029H4.69314V1.05029Z" fill="#707070"/>
<path d="M5.05642 1.05029H4.69531V1.40029H5.05642V1.05029Z" fill="#707070"/>
<path d="M5.4158 1.05029H5.05469V1.40029H5.4158V1.05029Z" fill="#707070"/>
<path d="M5.77908 1.05029H5.41797V1.40029H5.77908V1.05029Z" fill="#707070"/>
<path d="M6.13845 1.05029H5.77734V1.40029H6.13845V1.05029Z" fill="#707070"/>
<path d="M6.50174 1.05029H6.14062V1.40029H6.50174V1.05029Z" fill="#707070"/>
<path d="M6.86111 1.05005H6.5V1.40005H6.86111V1.05005Z" fill="#707070"/>
<path d="M7.22049 1.05029H6.85938V1.40029H7.22049V1.05029Z" fill="#707070"/>
<path d="M7.58377 1.05029H7.22266V1.40029H7.58377V1.05029Z" fill="#707070"/>
<path d="M7.94314 1.05029H7.58203V1.40029H7.94314V1.05029Z" fill="#707070"/>
<path d="M8.30642 1.05029H7.94531V1.40029H8.30642V1.05029Z" fill="#707070"/>
<path d="M8.6658 1.05029H8.30469V1.40029H8.6658V1.05029Z" fill="#707070"/>
<path d="M0.361111 1.3999H0V1.7499H0.361111V1.3999Z" fill="#707070"/>
<path d="M0.720486 1.3999H0.359375V1.7499H0.720486V1.3999Z" fill="#707070"/>
<path d="M1.08377 1.3999H0.722656V1.7499H1.08377V1.3999Z" fill="#707070"/>
<path d="M1.44314 1.3999H1.08203V1.7499H1.44314V1.3999Z" fill="#707070"/>
<path d="M7.58377 1.3999H7.22266V1.7499H7.58377V1.3999Z" fill="#707070"/>
<path d="M7.94314 1.3999H7.58203V1.7499H7.94314V1.3999Z" fill="#707070"/>
<path d="M8.30642 1.3999H7.94531V1.7499H8.30642V1.3999Z" fill="#707070"/>
<path d="M8.6658 1.3999H8.30469V1.7499H8.6658V1.3999Z" fill="#707070"/>
<path d="M0.361111 1.75H0V2.1H0.361111V1.75Z" fill="#707070"/>
<path d="M0.720486 1.75H0.359375V2.1H0.720486V1.75Z" fill="#707070"/>
<path d="M1.08377 1.75H0.722656V2.1H1.08377V1.75Z" fill="#707070"/>
<path d="M1.44314 1.75H1.08203V2.1H1.44314V1.75Z" fill="#707070"/>
<path d="M7.58377 1.75H7.22266V2.1H7.58377V1.75Z" fill="#707070"/>
<path d="M7.94314 1.75H7.58203V2.1H7.94314V1.75Z" fill="#707070"/>
<path d="M8.30642 1.75H7.94531V2.1H8.30642V1.75Z" fill="#707070"/>
<path d="M8.6658 1.75H8.30469V2.1H8.6658V1.75Z" fill="#707070"/>
<path d="M0.361111 2.1001H0V2.4501H0.361111V2.1001Z" fill="#707070"/>
<path d="M0.720486 2.1001H0.359375V2.4501H0.720486V2.1001Z" fill="#707070"/>
<path d="M1.08377 2.1001H0.722656V2.4501H1.08377V2.1001Z" fill="#707070"/>
<path d="M1.44314 2.1001H1.08203V2.4501H1.44314V2.1001Z" fill="#707070"/>
<path d="M7.58377 2.1001H7.22266V2.4501H7.58377V2.1001Z" fill="#707070"/>
<path d="M7.94314 2.1001H7.58203V2.4501H7.94314V2.1001Z" fill="#707070"/>
<path d="M8.30642 2.1001H7.94531V2.4501H8.30642V2.1001Z" fill="#707070"/>
<path d="M8.6658 2.1001H8.30469V2.4501H8.6658V2.1001Z" fill="#707070"/>
<path d="M0.361111 2.44995H0V2.79995H0.361111V2.44995Z" fill="#707070"/>
<path d="M0.720486 2.44971H0.359375V2.79971H0.720486V2.44971Z" fill="#707070"/>
<path d="M1.08377 2.44971H0.722656V2.79971H1.08377V2.44971Z" fill="#707070"/>
<path d="M1.44314 2.44971H1.08203V2.79971H1.44314V2.44971Z" fill="#707070"/>
<path d="M7.58377 2.44971H7.22266V2.79971H7.58377V2.44971Z" fill="#707070"/>
<path d="M7.94314 2.44971H7.58203V2.79971H7.94314V2.44971Z" fill="#707070"/>
<path d="M8.30642 2.44971H7.94531V2.79971H8.30642V2.44971Z" fill="#707070"/>
<path d="M8.6658 2.44971H8.30469V2.79971H8.6658V2.44971Z" fill="#707070"/>
<path d="M0.361111 2.80005H0V3.15005H0.361111V2.80005Z" fill="#707070"/>
<path d="M0.720486 2.80029H0.359375V3.15029H0.720486V2.80029Z" fill="#707070"/>
<path d="M1.08377 2.80029H0.722656V3.15029H1.08377V2.80029Z" fill="#707070"/>
<path d="M1.44314 2.80029H1.08203V3.15029H1.44314V2.80029Z" fill="#707070"/>
<path d="M4.69314 2.80029H4.33203V3.15029H4.69314V2.80029Z" fill="#707070"/>
<path d="M5.05642 2.80029H4.69531V3.15029H5.05642V2.80029Z" fill="#707070"/>
<path d="M5.4158 2.80029H5.05469V3.15029H5.4158V2.80029Z" fill="#707070"/>
<path d="M5.77908 2.80029H5.41797V3.15029H5.77908V2.80029Z" fill="#707070"/>
<path d="M6.13845 2.80029H5.77734V3.15029H6.13845V2.80029Z" fill="#707070"/>
<path d="M6.50174 2.80029H6.14062V3.15029H6.50174V2.80029Z" fill="#707070"/>
<path d="M6.86111 2.80005H6.5V3.15005H6.86111V2.80005Z" fill="#707070"/>
<path d="M7.22049 2.80029H6.85938V3.15029H7.22049V2.80029Z" fill="#707070"/>
<path d="M7.58377 2.80029H7.22266V3.15029H7.58377V2.80029Z" fill="#707070"/>
<path d="M7.94314 2.80029H7.58203V3.15029H7.94314V2.80029Z" fill="#707070"/>
<path d="M8.30642 2.80029H7.94531V3.15029H8.30642V2.80029Z" fill="#707070"/>
<path d="M8.6658 2.80029H8.30469V3.15029H8.6658V2.80029Z" fill="#707070"/>
<path d="M9.02908 2.80029H8.66797V3.15029H9.02908V2.80029Z" fill="#707070"/>
<path d="M9.38845 2.80029H9.02734V3.15029H9.38845V2.80029Z" fill="#707070"/>
<path d="M9.75174 2.80029H9.39062V3.15029H9.75174V2.80029Z" fill="#707070"/>
<path d="M10.1111 2.80005H9.75V3.15005H10.1111V2.80005Z" fill="#707070"/>
<path d="M0.361111 3.1499H0V3.4999H0.361111V3.1499Z" fill="#707070"/>
<path d="M0.720486 3.1499H0.359375V3.4999H0.720486V3.1499Z" fill="#707070"/>
<path d="M1.08377 3.1499H0.722656V3.4999H1.08377V3.1499Z" fill="#707070"/>
<path d="M1.44314 3.1499H1.08203V3.4999H1.44314V3.1499Z" fill="#707070"/>
<path d="M4.69314 3.1499H4.33203V3.4999H4.69314V3.1499Z" fill="#707070"/>
<path d="M5.05642 3.1499H4.69531V3.4999H5.05642V3.1499Z" fill="#707070"/>
<path d="M5.4158 3.1499H5.05469V3.4999H5.4158V3.1499Z" fill="#707070"/>
<path d="M5.77908 3.1499H5.41797V3.4999H5.77908V3.1499Z" fill="#707070"/>
<path d="M6.13845 3.1499H5.77734V3.4999H6.13845V3.1499Z" fill="#707070"/>
<path d="M6.50174 3.1499H6.14062V3.4999H6.50174V3.1499Z" fill="#707070"/>
<path d="M6.86111 3.1499H6.5V3.4999H6.86111V3.1499Z" fill="#707070"/>
<path d="M7.22049 3.1499H6.85938V3.4999H7.22049V3.1499Z" fill="#707070"/>
<path d="M7.58377 3.1499H7.22266V3.4999H7.58377V3.1499Z" fill="#707070"/>
<path d="M7.94314 3.1499H7.58203V3.4999H7.94314V3.1499Z" fill="#707070"/>
<path d="M8.30642 3.1499H7.94531V3.4999H8.30642V3.1499Z" fill="#707070"/>
<path d="M8.6658 3.1499H8.30469V3.4999H8.6658V3.1499Z" fill="#707070"/>
<path d="M9.02908 3.1499H8.66797V3.4999H9.02908V3.1499Z" fill="#707070"/>
<path d="M9.38845 3.1499H9.02734V3.4999H9.38845V3.1499Z" fill="#707070"/>
<path d="M9.75174 3.1499H9.39062V3.4999H9.75174V3.1499Z" fill="#707070"/>
<path d="M10.1111 3.1499H9.75V3.4999H10.1111V3.1499Z" fill="#707070"/>
<path d="M0.361111 3.5H0V3.85H0.361111V3.5Z" fill="#707070"/>
<path d="M0.720486 3.5H0.359375V3.85H0.720486V3.5Z" fill="#707070"/>
<path d="M1.08377 3.5H0.722656V3.85H1.08377V3.5Z" fill="#707070"/>
<path d="M1.44314 3.5H1.08203V3.85H1.44314V3.5Z" fill="#707070"/>
<path d="M4.69314 3.5H4.33203V3.85H4.69314V3.5Z" fill="#707070"/>
<path d="M5.05642 3.5H4.69531V3.85H5.05642V3.5Z" fill="#707070"/>
<path d="M5.4158 3.5H5.05469V3.85H5.4158V3.5Z" fill="#707070"/>
<path d="M5.77908 3.5H5.41797V3.85H5.77908V3.5Z" fill="#707070"/>
<path d="M6.13845 3.5H5.77734V3.85H6.13845V3.5Z" fill="#707070"/>
<path d="M6.50174 3.5H6.14062V3.85H6.50174V3.5Z" fill="#707070"/>
<path d="M6.86111 3.5H6.5V3.85H6.86111V3.5Z" fill="#707070"/>
<path d="M7.22049 3.5H6.85938V3.85H7.22049V3.5Z" fill="#707070"/>
<path d="M7.58377 3.5H7.22266V3.85H7.58377V3.5Z" fill="#707070"/>
<path d="M7.94314 3.5H7.58203V3.85H7.94314V3.5Z" fill="#707070"/>
<path d="M8.30642 3.5H7.94531V3.85H8.30642V3.5Z" fill="#707070"/>
<path d="M8.6658 3.5H8.30469V3.85H8.6658V3.5Z" fill="#707070"/>
<path d="M9.02908 3.5H8.66797V3.85H9.02908V3.5Z" fill="#707070"/>
<path d="M9.38845 3.5H9.02734V3.85H9.38845V3.5Z" fill="#707070"/>
<path d="M9.75174 3.5H9.39062V3.85H9.75174V3.5Z" fill="#707070"/>
<path d="M10.1111 3.5H9.75V3.85H10.1111V3.5Z" fill="#707070"/>
<path d="M0.361111 3.8501H0V4.2001H0.361111V3.8501Z" fill="#707070"/>
<path d="M0.720486 3.8501H0.359375V4.2001H0.720486V3.8501Z" fill="#707070"/>
<path d="M1.08377 3.8501H0.722656V4.2001H1.08377V3.8501Z" fill="#707070"/>
<path d="M1.44314 3.8501H1.08203V4.2001H1.44314V3.8501Z" fill="#707070"/>
<path d="M4.69314 3.8501H4.33203V4.2001H4.69314V3.8501Z" fill="#707070"/>
<path d="M5.05642 3.8501H4.69531V4.2001H5.05642V3.8501Z" fill="#707070"/>
<path d="M5.4158 3.8501H5.05469V4.2001H5.4158V3.8501Z" fill="#707070"/>
<path d="M5.77908 3.8501H5.41797V4.2001H5.77908V3.8501Z" fill="#707070"/>
<path d="M6.13845 3.8501H5.77734V4.2001H6.13845V3.8501Z" fill="#707070"/>
<path d="M6.50174 3.8501H6.14062V4.2001H6.50174V3.8501Z" fill="#707070"/>
<path d="M6.86111 3.8501H6.5V4.2001H6.86111V3.8501Z" fill="#707070"/>
<path d="M7.22049 3.8501H6.85938V4.2001H7.22049V3.8501Z" fill="#707070"/>
<path d="M7.58377 3.8501H7.22266V4.2001H7.58377V3.8501Z" fill="#707070"/>
<path d="M7.94314 3.8501H7.58203V4.2001H7.94314V3.8501Z" fill="#707070"/>
<path d="M8.30642 3.8501H7.94531V4.2001H8.30642V3.8501Z" fill="#707070"/>
<path d="M8.6658 3.8501H8.30469V4.2001H8.6658V3.8501Z" fill="#707070"/>
<path d="M9.02908 3.8501H8.66797V4.2001H9.02908V3.8501Z" fill="#707070"/>
<path d="M9.38845 3.8501H9.02734V4.2001H9.38845V3.8501Z" fill="#707070"/>
<path d="M9.75174 3.8501H9.39062V4.2001H9.75174V3.8501Z" fill="#707070"/>
<path d="M10.1111 3.8501H9.75V4.2001H10.1111V3.8501Z" fill="#707070"/>
<path d="M0.361111 4.19995H0V4.54995H0.361111V4.19995Z" fill="#707070"/>
<path d="M0.720486 4.19971H0.359375V4.54971H0.720486V4.19971Z" fill="#707070"/>
<path d="M1.08377 4.19971H0.722656V4.54971H1.08377V4.19971Z" fill="#707070"/>
<path d="M1.44314 4.19971H1.08203V4.54971H1.44314V4.19971Z" fill="#707070"/>
<path d="M4.69314 4.19971H4.33203V4.54971H4.69314V4.19971Z" fill="#707070"/>
<path d="M5.05642 4.19971H4.69531V4.54971H5.05642V4.19971Z" fill="#707070"/>
<path d="M5.4158 4.19971H5.05469V4.54971H5.4158V4.19971Z" fill="#707070"/>
<path d="M5.77908 4.19971H5.41797V4.54971H5.77908V4.19971Z" fill="#707070"/>
<path d="M10.4705 4.19971H10.1094V4.54971H10.4705V4.19971Z" fill="#707070"/>
<path d="M10.8338 4.19971H10.4727V4.54971H10.8338V4.19971Z" fill="#707070"/>
<path d="M11.1931 4.19971H10.832V4.54971H11.1931V4.19971Z" fill="#707070"/>
<path d="M11.5564 4.19971H11.1953V4.54971H11.5564V4.19971Z" fill="#707070"/>
<path d="M0.361111 4.55005H0V4.90005H0.361111V4.55005Z" fill="#707070"/>
<path d="M0.720486 4.55029H0.359375V4.90029H0.720486V4.55029Z" fill="#707070"/>
<path d="M1.08377 4.55029H0.722656V4.90029H1.08377V4.55029Z" fill="#707070"/>
<path d="M1.44314 4.55029H1.08203V4.90029H1.44314V4.55029Z" fill="#707070"/>
<path d="M4.69314 4.55029H4.33203V4.90029H4.69314V4.55029Z" fill="#707070"/>
<path d="M5.05642 4.55029H4.69531V4.90029H5.05642V4.55029Z" fill="#707070"/>
<path d="M5.4158 4.55029H5.05469V4.90029H5.4158V4.55029Z" fill="#707070"/>
<path d="M5.77908 4.55029H5.41797V4.90029H5.77908V4.55029Z" fill="#707070"/>
<path d="M10.4705 4.55029H10.1094V4.90029H10.4705V4.55029Z" fill="#707070"/>
<path d="M10.8338 4.55029H10.4727V4.90029H10.8338V4.55029Z" fill="#707070"/>
<path d="M11.1931 4.55029H10.832V4.90029H11.1931V4.55029Z" fill="#707070"/>
<path d="M11.5564 4.55029H11.1953V4.90029H11.5564V4.55029Z" fill="#707070"/>
<path d="M0.361111 4.8999H0V5.2499H0.361111V4.8999Z" fill="#707070"/>
<path d="M0.720486 4.8999H0.359375V5.2499H0.720486V4.8999Z" fill="#707070"/>
<path d="M1.08377 4.8999H0.722656V5.2499H1.08377V4.8999Z" fill="#707070"/>
<path d="M1.44314 4.8999H1.08203V5.2499H1.44314V4.8999Z" fill="#707070"/>
<path d="M4.69314 4.8999H4.33203V5.2499H4.69314V4.8999Z" fill="#707070"/>
<path d="M5.05642 4.8999H4.69531V5.2499H5.05642V4.8999Z" fill="#707070"/>
<path d="M5.4158 4.8999H5.05469V5.2499H5.4158V4.8999Z" fill="#707070"/>
<path d="M5.77908 4.8999H5.41797V5.2499H5.77908V4.8999Z" fill="#707070"/>
<path d="M10.4705 4.8999H10.1094V5.2499H10.4705V4.8999Z" fill="#707070"/>
<path d="M10.8338 4.8999H10.4727V5.2499H10.8338V4.8999Z" fill="#707070"/>
<path d="M11.1931 4.8999H10.832V5.2499H11.1931V4.8999Z" fill="#707070"/>
<path d="M11.5564 4.8999H11.1953V5.2499H11.5564V4.8999Z" fill="#707070"/>
<path d="M0.361111 5.25H0V5.6H0.361111V5.25Z" fill="#707070"/>
<path d="M0.720486 5.25H0.359375V5.6H0.720486V5.25Z" fill="#707070"/>
<path d="M1.08377 5.25H0.722656V5.6H1.08377V5.25Z" fill="#707070"/>
<path d="M1.44314 5.25H1.08203V5.6H1.44314V5.25Z" fill="#707070"/>
<path d="M4.69314 5.25H4.33203V5.6H4.69314V5.25Z" fill="#707070"/>
<path d="M5.05642 5.25H4.69531V5.6H5.05642V5.25Z" fill="#707070"/>
<path d="M5.4158 5.25H5.05469V5.6H5.4158V5.25Z" fill="#707070"/>
<path d="M5.77908 5.25H5.41797V5.6H5.77908V5.25Z" fill="#707070"/>
<path d="M10.4705 5.25H10.1094V5.6H10.4705V5.25Z" fill="#707070"/>
<path d="M10.8338 5.25H10.4727V5.6H10.8338V5.25Z" fill="#707070"/>
<path d="M11.1931 5.25H10.832V5.6H11.1931V5.25Z" fill="#707070"/>
<path d="M11.5564 5.25H11.1953V5.6H11.5564V5.25Z" fill="#707070"/>
<path d="M0.361111 5.6001H0V5.9501H0.361111V5.6001Z" fill="#707070"/>
<path d="M0.720486 5.6001H0.359375V5.9501H0.720486V5.6001Z" fill="#707070"/>
<path d="M1.08377 5.6001H0.722656V5.9501H1.08377V5.6001Z" fill="#707070"/>
<path d="M1.44314 5.6001H1.08203V5.9501H1.44314V5.6001Z" fill="#707070"/>
<path d="M4.69314 5.6001H4.33203V5.9501H4.69314V5.6001Z" fill="#707070"/>
<path d="M5.05642 5.6001H4.69531V5.9501H5.05642V5.6001Z" fill="#707070"/>
<path d="M5.4158 5.6001H5.05469V5.9501H5.4158V5.6001Z" fill="#707070"/>
<path d="M5.77908 5.6001H5.41797V5.9501H5.77908V5.6001Z" fill="#707070"/>
<path d="M11.9158 5.6001H11.5547V5.9501H11.9158V5.6001Z" fill="#707070"/>
<path d="M12.2791 5.6001H11.918V5.9501H12.2791V5.6001Z" fill="#707070"/>
<path d="M12.6385 5.6001H12.2773V5.9501H12.6385V5.6001Z" fill="#707070"/>
<path d="M13.0017 5.6001H12.6406V5.9501H13.0017V5.6001Z" fill="#707070"/>
<path d="M0.361111 5.94995H0V6.29995H0.361111V5.94995Z" fill="#707070"/>
<path d="M0.720486 5.94971H0.359375V6.29971H0.720486V5.94971Z" fill="#707070"/>
<path d="M1.08377 5.94971H0.722656V6.29971H1.08377V5.94971Z" fill="#707070"/>
<path d="M1.44314 5.94971H1.08203V6.29971H1.44314V5.94971Z" fill="#707070"/>
<path d="M4.69314 5.94971H4.33203V6.29971H4.69314V5.94971Z" fill="#707070"/>
<path d="M5.05642 5.94971H4.69531V6.29971H5.05642V5.94971Z" fill="#707070"/>
<path d="M5.4158 5.94971H5.05469V6.29971H5.4158V5.94971Z" fill="#707070"/>
<path d="M5.77908 5.94971H5.41797V6.29971H5.77908V5.94971Z" fill="#707070"/>
<path d="M11.9158 5.94971H11.5547V6.29971H11.9158V5.94971Z" fill="#707070"/>
<path d="M12.2791 5.94971H11.918V6.29971H12.2791V5.94971Z" fill="#707070"/>
<path d="M12.6385 5.94971H12.2773V6.29971H12.6385V5.94971Z" fill="#707070"/>
<path d="M13.0017 5.94971H12.6406V6.29971H13.0017V5.94971Z" fill="#707070"/>
<path d="M0.361111 6.30005H0V6.65005H0.361111V6.30005Z" fill="#707070"/>
<path d="M0.720486 6.30029H0.359375V6.65029H0.720486V6.30029Z" fill="#707070"/>
<path d="M1.08377 6.30029H0.722656V6.65029H1.08377V6.30029Z" fill="#707070"/>
<path d="M1.44314 6.30029H1.08203V6.65029H1.44314V6.30029Z" fill="#707070"/>
<path d="M4.69314 6.30029H4.33203V6.65029H4.69314V6.30029Z" fill="#707070"/>
<path d="M5.05642 6.30029H4.69531V6.65029H5.05642V6.30029Z" fill="#707070"/>
<path d="M5.4158 6.30029H5.05469V6.65029H5.4158V6.30029Z" fill="#707070"/>
<path d="M5.77908 6.30029H5.41797V6.65029H5.77908V6.30029Z" fill="#707070"/>
<path d="M11.9158 6.30029H11.5547V6.65029H11.9158V6.30029Z" fill="#707070"/>
<path d="M12.2791 6.30029H11.918V6.65029H12.2791V6.30029Z" fill="#707070"/>
<path d="M12.6385 6.30029H12.2773V6.65029H12.6385V6.30029Z" fill="#707070"/>
<path d="M13.0017 6.30029H12.6406V6.65029H13.0017V6.30029Z" fill="#707070"/>
<path d="M0.361111 6.6499H0V6.9999H0.361111V6.6499Z" fill="#707070"/>
<path d="M0.720486 6.6499H0.359375V6.9999H0.720486V6.6499Z" fill="#707070"/>
<path d="M1.08377 6.6499H0.722656V6.9999H1.08377V6.6499Z" fill="#707070"/>
<path d="M1.44314 6.6499H1.08203V6.9999H1.44314V6.6499Z" fill="#707070"/>
<path d="M4.69314 6.6499H4.33203V6.9999H4.69314V6.6499Z" fill="#707070"/>
<path d="M5.05642 6.6499H4.69531V6.9999H5.05642V6.6499Z" fill="#707070"/>
<path d="M5.4158 6.6499H5.05469V6.9999H5.4158V6.6499Z" fill="#707070"/>
<path d="M5.77908 6.6499H5.41797V6.9999H5.77908V6.6499Z" fill="#707070"/>
<path d="M11.9158 6.6499H11.5547V6.9999H11.9158V6.6499Z" fill="#707070"/>
<path d="M12.2791 6.6499H11.918V6.9999H12.2791V6.6499Z" fill="#707070"/>
<path d="M12.6385 6.6499H12.2773V6.9999H12.6385V6.6499Z" fill="#707070"/>
<path d="M13.0017 6.6499H12.6406V6.9999H13.0017V6.6499Z" fill="#707070"/>
<path d="M0.361111 7H0V7.35H0.361111V7Z" fill="#707070"/>
<path d="M0.720486 7H0.359375V7.35H0.720486V7Z" fill="#707070"/>
<path d="M1.08377 7H0.722656V7.35H1.08377V7Z" fill="#707070"/>
<path d="M1.44314 7H1.08203V7.35H1.44314V7Z" fill="#707070"/>
<path d="M4.69314 7H4.33203V7.35H4.69314V7Z" fill="#707070"/>
<path d="M5.05642 7H4.69531V7.35H5.05642V7Z" fill="#707070"/>
<path d="M5.4158 7H5.05469V7.35H5.4158V7Z" fill="#707070"/>
<path d="M5.77908 7H5.41797V7.35H5.77908V7Z" fill="#707070"/>
<path d="M11.9158 7H11.5547V7.35H11.9158V7Z" fill="#707070"/>
<path d="M12.2791 7H11.918V7.35H12.2791V7Z" fill="#707070"/>
<path d="M12.6385 7H12.2773V7.35H12.6385V7Z" fill="#707070"/>
<path d="M13.0017 7H12.6406V7.35H13.0017V7Z" fill="#707070"/>
<path d="M0.361111 7.3501H0V7.7001H0.361111V7.3501Z" fill="#707070"/>
<path d="M0.720486 7.3501H0.359375V7.7001H0.720486V7.3501Z" fill="#707070"/>
<path d="M1.08377 7.3501H0.722656V7.7001H1.08377V7.3501Z" fill="#707070"/>
<path d="M1.44314 7.3501H1.08203V7.7001H1.44314V7.3501Z" fill="#707070"/>
<path d="M4.69314 7.3501H4.33203V7.7001H4.69314V7.3501Z" fill="#707070"/>
<path d="M5.05642 7.3501H4.69531V7.7001H5.05642V7.3501Z" fill="#707070"/>
<path d="M5.4158 7.3501H5.05469V7.7001H5.4158V7.3501Z" fill="#707070"/>
<path d="M5.77908 7.3501H5.41797V7.7001H5.77908V7.3501Z" fill="#707070"/>
<path d="M11.9158 7.3501H11.5547V7.7001H11.9158V7.3501Z" fill="#707070"/>
<path d="M12.2791 7.3501H11.918V7.7001H12.2791V7.3501Z" fill="#707070"/>
<path d="M12.6385 7.3501H12.2773V7.7001H12.6385V7.3501Z" fill="#707070"/>
<path d="M13.0017 7.3501H12.6406V7.7001H13.0017V7.3501Z" fill="#707070"/>
<path d="M0.361111 7.69995H0V8.04995H0.361111V7.69995Z" fill="#707070"/>
<path d="M0.720486 7.69971H0.359375V8.04971H0.720486V7.69971Z" fill="#707070"/>
<path d="M1.08377 7.69971H0.722656V8.04971H1.08377V7.69971Z" fill="#707070"/>
<path d="M1.44314 7.69971H1.08203V8.04971H1.44314V7.69971Z" fill="#707070"/>
<path d="M4.69314 7.69971H4.33203V8.04971H4.69314V7.69971Z" fill="#707070"/>
<path d="M5.05642 7.69971H4.69531V8.04971H5.05642V7.69971Z" fill="#707070"/>
<path d="M5.4158 7.69971H5.05469V8.04971H5.4158V7.69971Z" fill="#707070"/>
<path d="M5.77908 7.69971H5.41797V8.04971H5.77908V7.69971Z" fill="#707070"/>
<path d="M11.9158 7.69971H11.5547V8.04971H11.9158V7.69971Z" fill="#707070"/>
<path d="M12.2791 7.69971H11.918V8.04971H12.2791V7.69971Z" fill="#707070"/>
<path d="M12.6385 7.69971H12.2773V8.04971H12.6385V7.69971Z" fill="#707070"/>
<path d="M13.0017 7.69971H12.6406V8.04971H13.0017V7.69971Z" fill="#707070"/>
<path d="M0.361111 8.05005H0V8.40005H0.361111V8.05005Z" fill="#707070"/>
<path d="M0.720486 8.05029H0.359375V8.40029H0.720486V8.05029Z" fill="#707070"/>
<path d="M1.08377 8.05029H0.722656V8.40029H1.08377V8.05029Z" fill="#707070"/>
<path d="M1.44314 8.05029H1.08203V8.40029H1.44314V8.05029Z" fill="#707070"/>
<path d="M4.69314 8.05029H4.33203V8.40029H4.69314V8.05029Z" fill="#707070"/>
<path d="M5.05642 8.05029H4.69531V8.40029H5.05642V8.05029Z" fill="#707070"/>
<path d="M5.4158 8.05029H5.05469V8.40029H5.4158V8.05029Z" fill="#707070"/>
<path d="M5.77908 8.05029H5.41797V8.40029H5.77908V8.05029Z" fill="#707070"/>
<path d="M11.9158 8.05029H11.5547V8.40029H11.9158V8.05029Z" fill="#707070"/>
<path d="M12.2791 8.05029H11.918V8.40029H12.2791V8.05029Z" fill="#707070"/>
<path d="M12.6385 8.05029H12.2773V8.40029H12.6385V8.05029Z" fill="#707070"/>
<path d="M13.0017 8.05029H12.6406V8.40029H13.0017V8.05029Z" fill="#707070"/>
<path d="M0.361111 8.3999H0V8.7499H0.361111V8.3999Z" fill="#707070"/>
<path d="M0.720486 8.3999H0.359375V8.7499H0.720486V8.3999Z" fill="#707070"/>
<path d="M1.08377 8.3999H0.722656V8.7499H1.08377V8.3999Z" fill="#707070"/>
<path d="M1.44314 8.3999H1.08203V8.7499H1.44314V8.3999Z" fill="#707070"/>
<path d="M4.69314 8.3999H4.33203V8.7499H4.69314V8.3999Z" fill="#707070"/>
<path d="M5.05642 8.3999H4.69531V8.7499H5.05642V8.3999Z" fill="#707070"/>
<path d="M5.4158 8.3999H5.05469V8.7499H5.4158V8.3999Z" fill="#707070"/>
<path d="M5.77908 8.3999H5.41797V8.7499H5.77908V8.3999Z" fill="#707070"/>
<path d="M11.9158 8.3999H11.5547V8.7499H11.9158V8.3999Z" fill="#707070"/>
<path d="M12.2791 8.3999H11.918V8.7499H12.2791V8.3999Z" fill="#707070"/>
<path d="M12.6385 8.3999H12.2773V8.7499H12.6385V8.3999Z" fill="#707070"/>
<path d="M13.0017 8.3999H12.6406V8.7499H13.0017V8.3999Z" fill="#707070"/>
<path d="M0.361111 8.75H0V9.1H0.361111V8.75Z" fill="#707070"/>
<path d="M0.720486 8.75H0.359375V9.1H0.720486V8.75Z" fill="#707070"/>
<path d="M1.08377 8.75H0.722656V9.1H1.08377V8.75Z" fill="#707070"/>
<path d="M1.44314 8.75H1.08203V9.1H1.44314V8.75Z" fill="#707070"/>
<path d="M4.69314 8.75H4.33203V9.1H4.69314V8.75Z" fill="#707070"/>
<path d="M5.05642 8.75H4.69531V9.1H5.05642V8.75Z" fill="#707070"/>
<path d="M5.4158 8.75H5.05469V9.1H5.4158V8.75Z" fill="#707070"/>
<path d="M5.77908 8.75H5.41797V9.1H5.77908V8.75Z" fill="#707070"/>
<path d="M11.9158 8.75H11.5547V9.1H11.9158V8.75Z" fill="#707070"/>
<path d="M12.2791 8.75H11.918V9.1H12.2791V8.75Z" fill="#707070"/>
<path d="M12.6385 8.75H12.2773V9.1H12.6385V8.75Z" fill="#707070"/>
<path d="M13.0017 8.75H12.6406V9.1H13.0017V8.75Z" fill="#707070"/>
<path d="M0.361111 9.1001H0V9.4501H0.361111V9.1001Z" fill="#707070"/>
<path d="M0.720486 9.1001H0.359375V9.4501H0.720486V9.1001Z" fill="#707070"/>
<path d="M1.08377 9.1001H0.722656V9.4501H1.08377V9.1001Z" fill="#707070"/>
<path d="M1.44314 9.1001H1.08203V9.4501H1.44314V9.1001Z" fill="#707070"/>
<path d="M4.69314 9.1001H4.33203V9.4501H4.69314V9.1001Z" fill="#707070"/>
<path d="M5.05642 9.1001H4.69531V9.4501H5.05642V9.1001Z" fill="#707070"/>
<path d="M5.4158 9.1001H5.05469V9.4501H5.4158V9.1001Z" fill="#707070"/>
<path d="M5.77908 9.1001H5.41797V9.4501H5.77908V9.1001Z" fill="#707070"/>
<path d="M11.9158 9.1001H11.5547V9.4501H11.9158V9.1001Z" fill="#707070"/>
<path d="M12.2791 9.1001H11.918V9.4501H12.2791V9.1001Z" fill="#707070"/>
<path d="M12.6385 9.1001H12.2773V9.4501H12.6385V9.1001Z" fill="#707070"/>
<path d="M13.0017 9.1001H12.6406V9.4501H13.0017V9.1001Z" fill="#707070"/>
<path d="M0.361111 9.44995H0V9.79995H0.361111V9.44995Z" fill="#707070"/>
<path d="M0.720486 9.44971H0.359375V9.79971H0.720486V9.44971Z" fill="#707070"/>
<path d="M1.08377 9.44971H0.722656V9.79971H1.08377V9.44971Z" fill="#707070"/>
<path d="M1.44314 9.44971H1.08203V9.79971H1.44314V9.44971Z" fill="#707070"/>
<path d="M4.69314 9.44971H4.33203V9.79971H4.69314V9.44971Z" fill="#707070"/>
<path d="M5.05642 9.44971H4.69531V9.79971H5.05642V9.44971Z" fill="#707070"/>
<path d="M5.4158 9.44971H5.05469V9.79971H5.4158V9.44971Z" fill="#707070"/>
<path d="M5.77908 9.44971H5.41797V9.79971H5.77908V9.44971Z" fill="#707070"/>
<path d="M11.9158 9.44971H11.5547V9.79971H11.9158V9.44971Z" fill="#707070"/>
<path d="M12.2791 9.44971H11.918V9.79971H12.2791V9.44971Z" fill="#707070"/>
<path d="M12.6385 9.44971H12.2773V9.79971H12.6385V9.44971Z" fill="#707070"/>
<path d="M13.0017 9.44971H12.6406V9.79971H13.0017V9.44971Z" fill="#707070"/>
<path d="M0.361111 9.80005H0V10.15H0.361111V9.80005Z" fill="#707070"/>
<path d="M0.720486 9.80029H0.359375V10.1503H0.720486V9.80029Z" fill="#707070"/>
<path d="M1.08377 9.80029H0.722656V10.1503H1.08377V9.80029Z" fill="#707070"/>
<path d="M1.44314 9.80029H1.08203V10.1503H1.44314V9.80029Z" fill="#707070"/>
<path d="M1.80642 9.80029H1.44531V10.1503H1.80642V9.80029Z" fill="#707070"/>
<path d="M2.1658 9.80029H1.80469V10.1503H2.1658V9.80029Z" fill="#707070"/>
<path d="M2.52908 9.80029H2.16797V10.1503H2.52908V9.80029Z" fill="#707070"/>
<path d="M2.88845 9.80029H2.52734V10.1503H2.88845V9.80029Z" fill="#707070"/>
<path d="M3.25174 9.80029H2.89062V10.1503H3.25174V9.80029Z" fill="#707070"/>
<path d="M3.61111 9.80005H3.25V10.15H3.61111V9.80005Z" fill="#707070"/>
<path d="M3.97049 9.80029H3.60938V10.1503H3.97049V9.80029Z" fill="#707070"/>
<path d="M4.33377 9.80029H3.97266V10.1503H4.33377V9.80029Z" fill="#707070"/>
<path d="M4.69314 9.80029H4.33203V10.1503H4.69314V9.80029Z" fill="#707070"/>
<path d="M5.05642 9.80029H4.69531V10.1503H5.05642V9.80029Z" fill="#707070"/>
<path d="M5.4158 9.80029H5.05469V10.1503H5.4158V9.80029Z" fill="#707070"/>
<path d="M5.77908 9.80029H5.41797V10.1503H5.77908V9.80029Z" fill="#707070"/>
<path d="M11.9158 9.80029H11.5547V10.1503H11.9158V9.80029Z" fill="#707070"/>
<path d="M12.2791 9.80029H11.918V10.1503H12.2791V9.80029Z" fill="#707070"/>
<path d="M12.6385 9.80029H12.2773V10.1503H12.6385V9.80029Z" fill="#707070"/>
<path d="M13.0017 9.80029H12.6406V10.1503H13.0017V9.80029Z" fill="#707070"/>
<path d="M0.361111 10.1499H0V10.4999H0.361111V10.1499Z" fill="#707070"/>
<path d="M0.720486 10.1499H0.359375V10.4999H0.720486V10.1499Z" fill="#707070"/>
<path d="M1.08377 10.1499H0.722656V10.4999H1.08377V10.1499Z" fill="#707070"/>
<path d="M1.44314 10.1499H1.08203V10.4999H1.44314V10.1499Z" fill="#707070"/>
<path d="M1.80642 10.1499H1.44531V10.4999H1.80642V10.1499Z" fill="#707070"/>
<path d="M2.1658 10.1499H1.80469V10.4999H2.1658V10.1499Z" fill="#707070"/>
<path d="M2.52908 10.1499H2.16797V10.4999H2.52908V10.1499Z" fill="#707070"/>
<path d="M2.88845 10.1499H2.52734V10.4999H2.88845V10.1499Z" fill="#707070"/>
<path d="M3.25174 10.1499H2.89062V10.4999H3.25174V10.1499Z" fill="#707070"/>
<path d="M3.61111 10.1499H3.25V10.4999H3.61111V10.1499Z" fill="#707070"/>
<path d="M3.97049 10.1499H3.60938V10.4999H3.97049V10.1499Z" fill="#707070"/>
<path d="M4.33377 10.1499H3.97266V10.4999H4.33377V10.1499Z" fill="#707070"/>
<path d="M4.69314 10.1499H4.33203V10.4999H4.69314V10.1499Z" fill="#707070"/>
<path d="M5.05642 10.1499H4.69531V10.4999H5.05642V10.1499Z" fill="#707070"/>
<path d="M5.4158 10.1499H5.05469V10.4999H5.4158V10.1499Z" fill="#707070"/>
<path d="M5.77908 10.1499H5.41797V10.4999H5.77908V10.1499Z" fill="#707070"/>
<path d="M11.9158 10.1499H11.5547V10.4999H11.9158V10.1499Z" fill="#707070"/>
<path d="M12.2791 10.1499H11.918V10.4999H12.2791V10.1499Z" fill="#707070"/>
<path d="M12.6385 10.1499H12.2773V10.4999H12.6385V10.1499Z" fill="#707070"/>
<path d="M13.0017 10.1499H12.6406V10.4999H13.0017V10.1499Z" fill="#707070"/>
<path d="M0.361111 10.5H0V10.85H0.361111V10.5Z" fill="#707070"/>
<path d="M0.720486 10.5H0.359375V10.85H0.720486V10.5Z" fill="#707070"/>
<path d="M1.08377 10.5H0.722656V10.85H1.08377V10.5Z" fill="#707070"/>
<path d="M1.44314 10.5H1.08203V10.85H1.44314V10.5Z" fill="#707070"/>
<path d="M1.80642 10.5H1.44531V10.85H1.80642V10.5Z" fill="#707070"/>
<path d="M2.1658 10.5H1.80469V10.85H2.1658V10.5Z" fill="#707070"/>
<path d="M2.52908 10.5H2.16797V10.85H2.52908V10.5Z" fill="#707070"/>
<path d="M2.88845 10.5H2.52734V10.85H2.88845V10.5Z" fill="#707070"/>
<path d="M3.25174 10.5H2.89062V10.85H3.25174V10.5Z" fill="#707070"/>
<path d="M3.61111 10.5H3.25V10.85H3.61111V10.5Z" fill="#707070"/>
<path d="M3.97049 10.5H3.60938V10.85H3.97049V10.5Z" fill="#707070"/>
<path d="M4.33377 10.5H3.97266V10.85H4.33377V10.5Z" fill="#707070"/>
<path d="M4.69314 10.5H4.33203V10.85H4.69314V10.5Z" fill="#707070"/>
<path d="M5.05642 10.5H4.69531V10.85H5.05642V10.5Z" fill="#707070"/>
<path d="M5.4158 10.5H5.05469V10.85H5.4158V10.5Z" fill="#707070"/>
<path d="M5.77908 10.5H5.41797V10.85H5.77908V10.5Z" fill="#707070"/>
<path d="M11.9158 10.5H11.5547V10.85H11.9158V10.5Z" fill="#707070"/>
<path d="M12.2791 10.5H11.918V10.85H12.2791V10.5Z" fill="#707070"/>
<path d="M12.6385 10.5H12.2773V10.85H12.6385V10.5Z" fill="#707070"/>
<path d="M13.0017 10.5H12.6406V10.85H13.0017V10.5Z" fill="#707070"/>
<path d="M0.361111 10.8501H0V11.2001H0.361111V10.8501Z" fill="#707070"/>
<path d="M0.720486 10.8501H0.359375V11.2001H0.720486V10.8501Z" fill="#707070"/>
<path d="M1.08377 10.8501H0.722656V11.2001H1.08377V10.8501Z" fill="#707070"/>
<path d="M1.44314 10.8501H1.08203V11.2001H1.44314V10.8501Z" fill="#707070"/>
<path d="M1.80642 10.8501H1.44531V11.2001H1.80642V10.8501Z" fill="#707070"/>
<path d="M2.1658 10.8501H1.80469V11.2001H2.1658V10.8501Z" fill="#707070"/>
<path d="M2.52908 10.8501H2.16797V11.2001H2.52908V10.8501Z" fill="#707070"/>
<path d="M2.88845 10.8501H2.52734V11.2001H2.88845V10.8501Z" fill="#707070"/>
<path d="M3.25174 10.8501H2.89062V11.2001H3.25174V10.8501Z" fill="#707070"/>
<path d="M3.61111 10.8501H3.25V11.2001H3.61111V10.8501Z" fill="#707070"/>
<path d="M3.97049 10.8501H3.60938V11.2001H3.97049V10.8501Z" fill="#707070"/>
<path d="M4.33377 10.8501H3.97266V11.2001H4.33377V10.8501Z" fill="#707070"/>
<path d="M4.69314 10.8501H4.33203V11.2001H4.69314V10.8501Z" fill="#707070"/>
<path d="M5.05642 10.8501H4.69531V11.2001H5.05642V10.8501Z" fill="#707070"/>
<path d="M5.4158 10.8501H5.05469V11.2001H5.4158V10.8501Z" fill="#707070"/>
<path d="M5.77908 10.8501H5.41797V11.2001H5.77908V10.8501Z" fill="#707070"/>
<path d="M11.9158 10.8501H11.5547V11.2001H11.9158V10.8501Z" fill="#707070"/>
<path d="M12.2791 10.8501H11.918V11.2001H12.2791V10.8501Z" fill="#707070"/>
<path d="M12.6385 10.8501H12.2773V11.2001H12.6385V10.8501Z" fill="#707070"/>
<path d="M13.0017 10.8501H12.6406V11.2001H13.0017V10.8501Z" fill="#707070"/>
<path d="M4.69314 11.1997H4.33203V11.5497H4.69314V11.1997Z" fill="#707070"/>
<path d="M5.05642 11.1997H4.69531V11.5497H5.05642V11.1997Z" fill="#707070"/>
<path d="M5.4158 11.1997H5.05469V11.5497H5.4158V11.1997Z" fill="#707070"/>
<path d="M5.77908 11.1997H5.41797V11.5497H5.77908V11.1997Z" fill="#707070"/>
<path d="M11.9158 11.1997H11.5547V11.5497H11.9158V11.1997Z" fill="#707070"/>
<path d="M12.2791 11.1997H11.918V11.5497H12.2791V11.1997Z" fill="#707070"/>
<path d="M12.6385 11.1997H12.2773V11.5497H12.6385V11.1997Z" fill="#707070"/>
<path d="M13.0017 11.1997H12.6406V11.5497H13.0017V11.1997Z" fill="#707070"/>
<path d="M4.69314 11.5503H4.33203V11.9003H4.69314V11.5503Z" fill="#707070"/>
<path d="M5.05642 11.5503H4.69531V11.9003H5.05642V11.5503Z" fill="#707070"/>
<path d="M5.4158 11.5503H5.05469V11.9003H5.4158V11.5503Z" fill="#707070"/>
<path d="M5.77908 11.5503H5.41797V11.9003H5.77908V11.5503Z" fill="#707070"/>
<path d="M11.9158 11.5503H11.5547V11.9003H11.9158V11.5503Z" fill="#707070"/>
<path d="M12.2791 11.5503H11.918V11.9003H12.2791V11.5503Z" fill="#707070"/>
<path d="M12.6385 11.5503H12.2773V11.9003H12.6385V11.5503Z" fill="#707070"/>
<path d="M13.0017 11.5503H12.6406V11.9003H13.0017V11.5503Z" fill="#707070"/>
<path d="M4.69314 11.8999H4.33203V12.2499H4.69314V11.8999Z" fill="#707070"/>
<path d="M5.05642 11.8999H4.69531V12.2499H5.05642V11.8999Z" fill="#707070"/>
<path d="M5.4158 11.8999H5.05469V12.2499H5.4158V11.8999Z" fill="#707070"/>
<path d="M5.77908 11.8999H5.41797V12.2499H5.77908V11.8999Z" fill="#707070"/>
<path d="M11.9158 11.8999H11.5547V12.2499H11.9158V11.8999Z" fill="#707070"/>
<path d="M12.2791 11.8999H11.918V12.2499H12.2791V11.8999Z" fill="#707070"/>
<path d="M12.6385 11.8999H12.2773V12.2499H12.6385V11.8999Z" fill="#707070"/>
<path d="M13.0017 11.8999H12.6406V12.2499H13.0017V11.8999Z" fill="#707070"/>
<path d="M4.69314 12.25H4.33203V12.6H4.69314V12.25Z" fill="#707070"/>
<path d="M5.05642 12.25H4.69531V12.6H5.05642V12.25Z" fill="#707070"/>
<path d="M5.4158 12.25H5.05469V12.6H5.4158V12.25Z" fill="#707070"/>
<path d="M5.77908 12.25H5.41797V12.6H5.77908V12.25Z" fill="#707070"/>
<path d="M11.9158 12.25H11.5547V12.6H11.9158V12.25Z" fill="#707070"/>
<path d="M12.2791 12.25H11.918V12.6H12.2791V12.25Z" fill="#707070"/>
<path d="M12.6385 12.25H12.2773V12.6H12.6385V12.25Z" fill="#707070"/>
<path d="M13.0017 12.25H12.6406V12.6H13.0017V12.25Z" fill="#707070"/>
<path d="M4.69314 12.6001H4.33203V12.9501H4.69314V12.6001Z" fill="#707070"/>
<path d="M5.05642 12.6001H4.69531V12.9501H5.05642V12.6001Z" fill="#707070"/>
<path d="M5.4158 12.6001H5.05469V12.9501H5.4158V12.6001Z" fill="#707070"/>
<path d="M5.77908 12.6001H5.41797V12.9501H5.77908V12.6001Z" fill="#707070"/>
<path d="M6.13845 12.6001H5.77734V12.9501H6.13845V12.6001Z" fill="#707070"/>
<path d="M6.50174 12.6001H6.14062V12.9501H6.50174V12.6001Z" fill="#707070"/>
<path d="M6.86111 12.6001H6.5V12.9501H6.86111V12.6001Z" fill="#707070"/>
<path d="M7.22049 12.6001H6.85938V12.9501H7.22049V12.6001Z" fill="#707070"/>
<path d="M7.58377 12.6001H7.22266V12.9501H7.58377V12.6001Z" fill="#707070"/>
<path d="M7.94314 12.6001H7.58203V12.9501H7.94314V12.6001Z" fill="#707070"/>
<path d="M8.30642 12.6001H7.94531V12.9501H8.30642V12.6001Z" fill="#707070"/>
<path d="M8.6658 12.6001H8.30469V12.9501H8.6658V12.6001Z" fill="#707070"/>
<path d="M9.02908 12.6001H8.66797V12.9501H9.02908V12.6001Z" fill="#707070"/>
<path d="M9.38845 12.6001H9.02734V12.9501H9.38845V12.6001Z" fill="#707070"/>
<path d="M9.75174 12.6001H9.39062V12.9501H9.75174V12.6001Z" fill="#707070"/>
<path d="M10.1111 12.6001H9.75V12.9501H10.1111V12.6001Z" fill="#707070"/>
<path d="M10.4705 12.6001H10.1094V12.9501H10.4705V12.6001Z" fill="#707070"/>
<path d="M10.8338 12.6001H10.4727V12.9501H10.8338V12.6001Z" fill="#707070"/>
<path d="M11.1931 12.6001H10.832V12.9501H11.1931V12.6001Z" fill="#707070"/>
<path d="M11.5564 12.6001H11.1953V12.9501H11.5564V12.6001Z" fill="#707070"/>
<path d="M11.9158 12.6001H11.5547V12.9501H11.9158V12.6001Z" fill="#707070"/>
<path d="M12.2791 12.6001H11.918V12.9501H12.2791V12.6001Z" fill="#707070"/>
<path d="M12.6385 12.6001H12.2773V12.9501H12.6385V12.6001Z" fill="#707070"/>
<path d="M13.0017 12.6001H12.6406V12.9501H13.0017V12.6001Z" fill="#707070"/>
<path d="M4.69314 12.9497H4.33203V13.2997H4.69314V12.9497Z" fill="#707070"/>
<path d="M5.05642 12.9497H4.69531V13.2997H5.05642V12.9497Z" fill="#707070"/>
<path d="M5.4158 12.9497H5.05469V13.2997H5.4158V12.9497Z" fill="#707070"/>
<path d="M5.77908 12.9497H5.41797V13.2997H5.77908V12.9497Z" fill="#707070"/>
<path d="M6.13845 12.9497H5.77734V13.2997H6.13845V12.9497Z" fill="#707070"/>
<path d="M6.50174 12.9497H6.14062V13.2997H6.50174V12.9497Z" fill="#707070"/>
<path d="M6.86111 12.95H6.5V13.3H6.86111V12.95Z" fill="#707070"/>
<path d="M7.22049 12.9497H6.85938V13.2997H7.22049V12.9497Z" fill="#707070"/>
<path d="M7.58377 12.9497H7.22266V13.2997H7.58377V12.9497Z" fill="#707070"/>
<path d="M7.94314 12.9497H7.58203V13.2997H7.94314V12.9497Z" fill="#707070"/>
<path d="M8.30642 12.9497H7.94531V13.2997H8.30642V12.9497Z" fill="#707070"/>
<path d="M8.6658 12.9497H8.30469V13.2997H8.6658V12.9497Z" fill="#707070"/>
<path d="M9.02908 12.9497H8.66797V13.2997H9.02908V12.9497Z" fill="#707070"/>
<path d="M9.38845 12.9497H9.02734V13.2997H9.38845V12.9497Z" fill="#707070"/>
<path d="M9.75174 12.9497H9.39062V13.2997H9.75174V12.9497Z" fill="#707070"/>
<path d="M10.1111 12.95H9.75V13.3H10.1111V12.95Z" fill="#707070"/>
<path d="M10.4705 12.9497H10.1094V13.2997H10.4705V12.9497Z" fill="#707070"/>
<path d="M10.8338 12.9497H10.4727V13.2997H10.8338V12.9497Z" fill="#707070"/>
<path d="M11.1931 12.9497H10.832V13.2997H11.1931V12.9497Z" fill="#707070"/>
<path d="M11.5564 12.9497H11.1953V13.2997H11.5564V12.9497Z" fill="#707070"/>
<path d="M11.9158 12.9497H11.5547V13.2997H11.9158V12.9497Z" fill="#707070"/>
<path d="M12.2791 12.9497H11.918V13.2997H12.2791V12.9497Z" fill="#707070"/>
<path d="M12.6385 12.9497H12.2773V13.2997H12.6385V12.9497Z" fill="#707070"/>
<path d="M13.0017 12.9497H12.6406V13.2997H13.0017V12.9497Z" fill="#707070"/>
<path d="M4.69314 13.3003H4.33203V13.6503H4.69314V13.3003Z" fill="#707070"/>
<path d="M5.05642 13.3003H4.69531V13.6503H5.05642V13.3003Z" fill="#707070"/>
<path d="M5.4158 13.3003H5.05469V13.6503H5.4158V13.3003Z" fill="#707070"/>
<path d="M5.77908 13.3003H5.41797V13.6503H5.77908V13.3003Z" fill="#707070"/>
<path d="M6.13845 13.3003H5.77734V13.6503H6.13845V13.3003Z" fill="#707070"/>
<path d="M6.50174 13.3003H6.14062V13.6503H6.50174V13.3003Z" fill="#707070"/>
<path d="M6.86111 13.3H6.5V13.65H6.86111V13.3Z" fill="#707070"/>
<path d="M7.22049 13.3003H6.85938V13.6503H7.22049V13.3003Z" fill="#707070"/>
<path d="M7.58377 13.3003H7.22266V13.6503H7.58377V13.3003Z" fill="#707070"/>
<path d="M7.94314 13.3003H7.58203V13.6503H7.94314V13.3003Z" fill="#707070"/>
<path d="M8.30642 13.3003H7.94531V13.6503H8.30642V13.3003Z" fill="#707070"/>
<path d="M8.6658 13.3003H8.30469V13.6503H8.6658V13.3003Z" fill="#707070"/>
<path d="M9.02908 13.3003H8.66797V13.6503H9.02908V13.3003Z" fill="#707070"/>
<path d="M9.38845 13.3003H9.02734V13.6503H9.38845V13.3003Z" fill="#707070"/>
<path d="M9.75174 13.3003H9.39062V13.6503H9.75174V13.3003Z" fill="#707070"/>
<path d="M10.1111 13.3H9.75V13.65H10.1111V13.3Z" fill="#707070"/>
<path d="M10.4705 13.3003H10.1094V13.6503H10.4705V13.3003Z" fill="#707070"/>
<path d="M10.8338 13.3003H10.4727V13.6503H10.8338V13.3003Z" fill="#707070"/>
<path d="M11.1931 13.3003H10.832V13.6503H11.1931V13.3003Z" fill="#707070"/>
<path d="M11.5564 13.3003H11.1953V13.6503H11.5564V13.3003Z" fill="#707070"/>
<path d="M11.9158 13.3003H11.5547V13.6503H11.9158V13.3003Z" fill="#707070"/>
<path d="M12.2791 13.3003H11.918V13.6503H12.2791V13.3003Z" fill="#707070"/>
<path d="M12.6385 13.3003H12.2773V13.6503H12.6385V13.3003Z" fill="#707070"/>
<path d="M13.0017 13.3003H12.6406V13.6503H13.0017V13.3003Z" fill="#707070"/>
<path d="M4.69314 13.6499H4.33203V13.9999H4.69314V13.6499Z" fill="#707070"/>
<path d="M5.05642 13.6499H4.69531V13.9999H5.05642V13.6499Z" fill="#707070"/>
<path d="M5.4158 13.6499H5.05469V13.9999H5.4158V13.6499Z" fill="#707070"/>
<path d="M5.77908 13.6499H5.41797V13.9999H5.77908V13.6499Z" fill="#707070"/>
<path d="M6.13845 13.6499H5.77734V13.9999H6.13845V13.6499Z" fill="#707070"/>
<path d="M6.50174 13.6499H6.14062V13.9999H6.50174V13.6499Z" fill="#707070"/>
<path d="M6.86111 13.6499H6.5V13.9999H6.86111V13.6499Z" fill="#707070"/>
<path d="M7.22049 13.6499H6.85938V13.9999H7.22049V13.6499Z" fill="#707070"/>
<path d="M7.58377 13.6499H7.22266V13.9999H7.58377V13.6499Z" fill="#707070"/>
<path d="M7.94314 13.6499H7.58203V13.9999H7.94314V13.6499Z" fill="#707070"/>
<path d="M8.30642 13.6499H7.94531V13.9999H8.30642V13.6499Z" fill="#707070"/>
<path d="M8.6658 13.6499H8.30469V13.9999H8.6658V13.6499Z" fill="#707070"/>
<path d="M9.02908 13.6499H8.66797V13.9999H9.02908V13.6499Z" fill="#707070"/>
<path d="M9.38845 13.6499H9.02734V13.9999H9.38845V13.6499Z" fill="#707070"/>
<path d="M9.75174 13.6499H9.39062V13.9999H9.75174V13.6499Z" fill="#707070"/>
<path d="M10.1111 13.6499H9.75V13.9999H10.1111V13.6499Z" fill="#707070"/>
<path d="M10.4705 13.6499H10.1094V13.9999H10.4705V13.6499Z" fill="#707070"/>
<path d="M10.8338 13.6499H10.4727V13.9999H10.8338V13.6499Z" fill="#707070"/>
<path d="M11.1931 13.6499H10.832V13.9999H11.1931V13.6499Z" fill="#707070"/>
<path d="M11.5564 13.6499H11.1953V13.9999H11.5564V13.6499Z" fill="#707070"/>
<path d="M11.9158 13.6499H11.5547V13.9999H11.9158V13.6499Z" fill="#707070"/>
<path d="M12.2791 13.6499H11.918V13.9999H12.2791V13.6499Z" fill="#707070"/>
<path d="M12.6385 13.6499H12.2773V13.9999H12.6385V13.6499Z" fill="#707070"/>
<path d="M13.0017 13.6499H12.6406V13.9999H13.0017V13.6499Z" fill="#707070"/>
</g>
</g>
<defs>
<clipPath id="clip0_0_1">
<rect width="420" height="2901" fill="white" transform="translate(-265 -128)"/>
</clipPath>
<clipPath id="clip1_0_1">
<rect width="13" height="14" fill="white"/>
</clipPath>
</defs>
</svg>
